<?xml version="1.0" encoding="UTF-8"?>
<!DOCTYPE svg PUBLIC "-//W3C//DTD SVG 1.1//EN" "http://www.w3.org/Graphics/SVG/1.1/DTD/svg11.dtd">
<!-- Creator: CorelDRAW -->
<svg xmlns="http://www.w3.org/2000/svg" xml:space="preserve" width="6.69291in" height="3.46457in" version="1.1" style="shape-rendering:geometricPrecision; text-rendering:geometricPrecision; image-rendering:optimizeQuality; fill-rule:evenodd; clip-rule:evenodd"
viewBox="0 0 6692.91 3464.57"
 xmlns:xlink="http://www.w3.org/1999/xlink"
 xmlns:xodm="http://www.corel.com/coreldraw/odm/2003">
 <defs>
  <style type="text/css">
   <![CDATA[
    .str0 {stroke:#CCB260;stroke-width:6.94;stroke-miterlimit:2.61313}
    .fil5 {fill:none;fill-rule:nonzero}
    .fil3 {fill:#666666;fill-rule:nonzero}
    .fil4 {fill:#805711;fill-rule:nonzero}
    .fil0 {fill:url(#id0)}
    .fil1 {fill:url(#id1)}
    .fil2 {fill:url(#id2)}
   ]]>
  </style>
  <linearGradient id="id0" gradientUnits="userSpaceOnUse" x1="1451.39" y1="261.23" x2="2575.69" y2="1686.93">
   <stop offset="0" style="stop-opacity:1; stop-color:#373535"/>
   <stop offset="0.0117647" style="stop-opacity:1; stop-color:#373535"/>
   <stop offset="0.0784314" style="stop-opacity:1; stop-color:#373535"/>
   <stop offset="0.14902" style="stop-opacity:1; stop-color:#4C4B4D"/>
   <stop offset="0.411765" style="stop-opacity:1; stop-color:#606163"/>
   <stop offset="0.588235" style="stop-opacity:1; stop-color:#4C4B4D"/>
   <stop offset="0.760784" style="stop-opacity:1; stop-color:#373535"/>
   <stop offset="1" style="stop-opacity:1; stop-color:#373535"/>
  </linearGradient>
  <linearGradient id="id1" gradientUnits="userSpaceOnUse" x1="294.44" y1="1738.59" x2="1432.22" y2="536.51">
   <stop offset="0" style="stop-opacity:1; stop-color:#805711"/>
   <stop offset="0.121569" style="stop-opacity:1; stop-color:#947025"/>
   <stop offset="0.501961" style="stop-opacity:1; stop-color:#AD9062"/>
   <stop offset="0.788235" style="stop-opacity:1; stop-color:#9E8241"/>
   <stop offset="0.870588" style="stop-opacity:1; stop-color:#A37B26"/>
   <stop offset="1" style="stop-opacity:1; stop-color:#866400"/>
  </linearGradient>
  <linearGradient id="id2" gradientUnits="userSpaceOnUse" x1="863.33" y1="0.54" x2="863.33" y2="1612.2">
   <stop offset="0" style="stop-opacity:1; stop-color:#805711"/>
   <stop offset="0.121569" style="stop-opacity:1; stop-color:#947025"/>
   <stop offset="0.278431" style="stop-opacity:1; stop-color:#CCB260"/>
   <stop offset="0.4" style="stop-opacity:1; stop-color:#C6A864"/>
   <stop offset="0.501961" style="stop-opacity:1; stop-color:#FEF3B3"/>
   <stop offset="0.690196" style="stop-opacity:1; stop-color:#CCB260"/>
   <stop offset="0.788235" style="stop-opacity:1; stop-color:#9E8241"/>
   <stop offset="0.870588" style="stop-opacity:1; stop-color:#A37B26"/>
   <stop offset="0.909804" style="stop-opacity:1; stop-color:#C09838"/>
   <stop offset="1" style="stop-opacity:1; stop-color:#866400"/>
  </linearGradient>
 </defs>
 <g id="Layer_x0020_1">
  <metadata id="CorelCorpID_0Corel-Layer"/>
  <g id="_49248311360">
   <path class="fil0" d="M2842.29 875.17l0 884.48c-122.07,61.25 -241.14,107.08 -356.78,137.92 -116.07,31.26 -228.3,46.69 -337.09,46.69 -277.12,0 -506.69,-91.23 -689.59,-274.12 -182.89,-182.89 -274.12,-413.75 -274.12,-692.16 0,-281.41 92.51,-513.98 277.98,-697.73 185.46,-184.18 419.75,-276.27 703.72,-276.27 107.08,0 209.02,14.56 306.25,44.12 96.79,29.13 190.17,73.67 279.69,132.78l-46.69 455.3c-84.38,-85.24 -168.33,-147.77 -251.85,-187.17 -83.95,-39.83 -171.76,-59.54 -263.85,-59.54 -163.19,0 -298.11,54.39 -405.19,163.62 -107.08,109.22 -160.62,245.85 -160.62,409.47 0,172.61 51.83,313.1 155.05,422.32 103.22,109.22 236.43,163.62 399.19,163.62 37.69,0 75.81,-3.43 114.36,-9.85 38.55,-6.85 78.38,-16.28 120.35,-29.12l0 -264.28 -344.37 0 0 -370.07 773.54 0z"/>
   <path class="fil1" d="M12.04 1943.33l283.76 0 -283.76 -322.31 0 322.31zm567.54 0l283.73 0 -851.27 -966.99 0 322.31 567.54 644.68zm567.52 0l283.76 0 -1418.82 -1611.67 0 322.33 1135.06 1289.34zm283.76 0l283.76 0"/>
   <path class="fil2" d="M1147.1 0.52l283.76 0 283.76 0 -283.76 0 -1418.82 1611.67 0 -322.32 1135.06 -1289.35zm-1135.06 0l283.76 0 -283.76 322.31 0 -322.31zm567.54 0l-567.54 644.68 0 322.31 851.27 -966.99 -283.73 0z"/>
   <polygon class="fil3" points="826.11,3450.79 765.52,3450.79 765.52,2729.49 72.63,2729.49 72.63,3450.79 12.04,3450.79 12.04,2125.57 72.63,2125.57 72.63,2668.91 765.52,2668.91 765.52,2125.57 826.11,2125.57 "/>
   <path class="fil3" d="M1816.22 3106.23l0 -982.56 60.58 0 0 974.98c0,66.26 -11.36,124.95 -34.08,174.17 -24.61,49.22 -54.9,87.09 -94.66,113.59 -39.76,26.5 -83.3,45.43 -126.84,58.69 -43.54,13.25 -90.87,18.93 -141.99,18.93 -51.11,0 -98.44,-5.68 -141.98,-18.93 -45.44,-13.25 -87.09,-32.18 -126.84,-58.69 -39.76,-26.5 -71.94,-64.37 -94.66,-113.59 -24.61,-49.22 -35.97,-107.91 -35.97,-174.17l0 -974.98 60.58 0 0 982.56c0,102.23 34.07,177.96 102.23,227.18 66.26,49.22 145.78,73.83 236.65,73.83 90.87,0 170.39,-24.61 236.65,-75.72 66.26,-49.22 100.34,-124.95 100.34,-225.29z"/>
   <path class="fil3" d="M2556.43 3450.79l-435.43 0 0 -1325.22 418.39 0c104.13,0 185.53,26.5 244.22,77.62 58.69,53.01 88.98,130.63 88.98,230.97 0,53.01 -13.25,102.23 -37.87,149.56 -24.61,47.33 -62.47,85.19 -113.59,109.8 -1.89,1.89 -1.89,1.89 -1.89,3.79l0 1.89c62.47,24.61 115.48,66.26 159.02,124.95 41.65,58.69 62.48,134.41 62.48,230.96 0,100.34 -26.5,189.32 -77.62,263.15 -26.5,39.76 -66.26,71.94 -117.37,96.56 -53.01,24.61 -115.48,35.97 -189.32,35.97zm-374.85 -781.88l401.35 0c62.48,0 115.48,-20.82 159.03,-60.58 45.44,-41.65 68.15,-102.23 68.15,-179.85 0,-77.62 -24.61,-138.2 -71.94,-181.74 -47.33,-41.65 -119.27,-62.47 -213.93,-62.47l-342.67 0 0 484.65zm0 723.19l371.06 0c104.13,0 183.64,-28.4 240.43,-85.19 56.8,-56.8 85.19,-138.2 85.19,-244.22 0,-104.13 -28.4,-187.43 -85.19,-246.11 -56.8,-58.69 -132.52,-87.08 -225.29,-87.08l-386.2 0 0 662.61z"/>
   <path class="fil4" d="M3337.22 749.06l65.61 0 0 183.72 228.49 0 0 -183.72 65.61 0 0 480.14 -65.61 0 0 -230.81 -228.49 0 0 230.81 -65.61 0 0 -480.14zm440 323.44c0,-43.23 16.98,-81.06 50.18,-114.25 33.96,-33.19 72.56,-49.4 115.79,-49.4 44.77,0 84.14,16.21 117.33,48.63 33.19,33.19 50.18,71.02 50.18,115.02 0,44 -16.21,82.59 -49.41,115.79 -32.42,33.19 -70.24,50.18 -113.47,50.18 -46.31,0 -85.69,-16.21 -119.65,-49.41 -33.96,-33.19 -50.95,-71.79 -50.95,-116.56zm270.18 0c0,-27.02 -10.04,-49.41 -30.11,-69.48 -20.07,-19.3 -44,-29.33 -71.79,-29.33 -28.56,0 -52.49,10.04 -73.33,30.1 -20.84,19.3 -30.88,43.23 -30.88,71.02 0,26.24 10.81,49.4 30.88,69.47 20.84,19.3 45.54,29.33 73.33,29.33 27.02,0 50.94,-10.04 71.02,-30.11 20.84,-20.84 30.88,-44 30.88,-71.02zm121.19 -154.39l65.61 0 0 175.23c0,54.04 23.93,81.05 71.02,81.05 21.61,0 37.83,-6.95 50.18,-21.61 12.35,-14.67 18.53,-34.74 18.53,-59.44l0 -175.23 65.61 0 0 186.04c0,38.59 -12.35,71.02 -37.83,95.72 -25.47,25.48 -57.89,37.83 -98.04,37.83 -40.14,0 -72.56,-12.35 -97.26,-37.83 -25.47,-24.7 -37.82,-57.89 -37.82,-98.04l0 -183.72zm538.04 36.28l-44 38.59c-10.81,-8.49 -20.84,-14.67 -29.33,-18.52 -8.49,-3.86 -17.75,-6.18 -29.33,-6.18 -27.02,0 -40.14,10.04 -40.14,29.33 0,13.89 16.98,27.79 50.95,40.91 33.96,13.12 57.89,27.79 72.56,44 14.67,15.44 22.39,34.74 22.39,57.12 0,26.24 -10.81,49.4 -31.65,68.7 -21.61,19.3 -47.09,29.33 -75.65,29.33 -44,0 -79.51,-20.07 -108.07,-60.98l51.72 -24.7c17.76,17.76 37.06,26.24 56.35,26.24 13.89,0 25.47,-3.86 35.51,-11.58 10.04,-6.94 15.44,-15.44 15.44,-25.47 0,-17.76 -17.75,-33.19 -53.26,-47.09 -36.28,-13.9 -60.98,-27.79 -74.1,-42.46 -13.9,-13.89 -20.84,-31.65 -20.84,-52.49 0,-25.47 10.04,-47.09 29.33,-64.84 19.3,-16.98 44,-25.47 73.33,-25.47 29.33,0 62.53,15.44 98.81,45.54zm57.12 -138.18c0,-13.89 5.4,-25.47 15.44,-35.51 10.04,-10.04 21.61,-14.67 35.51,-14.67 13.89,0 25.47,4.63 35.51,14.67 10.04,10.04 14.67,21.61 14.67,35.51 0,13.9 -4.63,25.48 -14.67,35.51 -10.04,10.04 -21.61,14.67 -35.51,14.67 -13.9,0 -25.48,-4.63 -35.51,-14.67 -10.04,-10.04 -15.44,-21.61 -15.44,-35.51zm18.53 101.9l65.61 0 0 311.09 -65.61 0 0 -311.09zm150.52 311.09l0 -311.09 65.61 0 0 51.72c18.53,-20.84 35.51,-36.28 50.95,-46.31 15.44,-10.04 32.42,-14.67 50.94,-14.67 27.79,0 51.72,9.26 71.79,27.79 19.3,18.53 29.33,40.91 29.33,67.16l0 225.41 -65.61 0 0 -206.11c0,-16.98 -5.4,-30.88 -16.21,-42.46 -10.81,-10.81 -24.7,-16.21 -41.69,-16.21 -21.61,0 -40.14,9.26 -55.58,27.79 -16.21,18.53 -23.93,40.91 -23.93,67.16l0 169.82 -65.61 0zm609.06 -311.09l64.07 0 0 298.74c0,44 -15.44,81.05 -45.54,111.93 -30.1,30.88 -66.39,46.31 -109.61,46.31 -32.42,0 -62.52,-8.49 -90.31,-26.24 -27.02,-17.76 -47.09,-44.77 -60.21,-81.05l67.93 0c20.07,33.19 48.63,50.17 84.91,50.17 24.7,0 45.55,-8.49 62.53,-26.24 17.76,-17.76 26.25,-39.37 26.25,-64.07l0 -58.67c-31.65,45.54 -71.79,68.7 -119.65,68.7 -40.14,0 -74.11,-16.21 -104.21,-49.41 -29.33,-32.42 -44,-71.79 -44,-116.56 0,-44.77 14.67,-83.37 43.23,-115.02 28.56,-31.65 63.3,-47.86 102.67,-47.86 50.95,0 91.86,24.7 121.97,74.88l0 -65.61zm9.26 154.39c0,-29.33 -10.03,-53.26 -30.1,-73.33 -20.07,-19.3 -45.54,-29.33 -75.65,-29.33 -27.02,0 -50.95,10.04 -71.79,30.88 -20.84,20.07 -31.65,44 -31.65,70.25 0,29.33 10.04,54.04 30.88,74.87 20.84,20.84 45.54,31.65 73.33,31.65 29.33,0 54.04,-10.04 74.11,-30.88 20.84,-20.07 30.87,-44.77 30.87,-74.1z"/>
   <path class="fil4" d="M3333.36 1424.8l65.61 0 0 480.14 -65.61 0 0 -480.14zm152.07 480.14l0 -311.09 65.61 0 0 51.72c18.53,-20.84 35.51,-36.28 50.95,-46.31 15.44,-10.04 32.42,-14.67 50.94,-14.67 27.79,0 51.72,9.26 71.79,27.79 19.3,18.53 29.33,40.91 29.33,67.16l0 225.41 -65.61 0 0 -206.11c0,-16.98 -5.4,-30.88 -16.21,-42.46 -10.81,-10.81 -24.7,-16.21 -41.69,-16.21 -21.61,0 -40.14,9.26 -55.58,27.79 -16.21,18.53 -23.93,40.91 -23.93,67.16l0 169.82 -65.61 0zm371.3 -400.63l65.61 0 0 89.55 64.84 0 0 60.98 -64.84 0 0 250.11 -65.61 0 0 -250.11 -51.72 0 0 -60.98 51.72 0 0 -89.55zm498.67 257.06l-265.54 0c6.18,32.42 19.3,55.58 39.37,70.24 20.84,14.67 43.23,22.39 67.16,22.39 37.05,0 68.7,-15.44 93.4,-46.31l47.86 36.28c-35.51,46.32 -84.14,69.48 -144.35,69.48 -46.32,0 -84.91,-16.21 -115.79,-47.86 -31.65,-31.65 -47.09,-71.02 -47.09,-118.1 0,-44 16.21,-81.83 47.09,-114.25 31.65,-32.42 70.24,-48.63 115.79,-48.63 44.77,0 83.37,16.21 115.02,49.4 31.65,32.42 47.86,74.88 47.09,127.37zm-258.59 -52.49l190.67 0c-20.84,-42.46 -52.49,-64.07 -93.4,-64.07 -45.55,0 -77.97,21.61 -97.26,64.07zm342.74 -293.33l65.61 0 0 489.41 -65.61 0 0 -489.41zm169.05 0l65.61 0 0 489.41 -65.61 0 0 -489.41zm148.21 76.42c0,-13.89 5.4,-25.47 15.44,-35.51 10.04,-10.04 21.61,-14.67 35.51,-14.67 13.89,0 25.47,4.63 35.51,14.67 10.04,10.04 14.67,21.61 14.67,35.51 0,13.9 -4.63,25.48 -14.67,35.51 -10.04,10.04 -21.61,14.67 -35.51,14.67 -13.9,0 -25.48,-4.63 -35.51,-14.67 -10.04,-10.04 -15.44,-21.61 -15.44,-35.51zm18.53 101.9l65.61 0 0 311.09 -65.61 0 0 -311.09zm421.47 0l64.07 0 0 298.74c0,44 -15.44,81.05 -45.54,111.93 -30.1,30.88 -66.39,46.31 -109.61,46.31 -32.42,0 -62.52,-8.49 -90.31,-26.24 -27.02,-17.76 -47.09,-44.77 -60.21,-81.05l67.93 0c20.07,33.19 48.63,50.17 84.91,50.17 24.7,0 45.55,-8.49 62.53,-26.24 17.76,-17.76 26.25,-39.37 26.25,-64.07l0 -58.67c-31.65,45.54 -71.79,68.7 -119.65,68.7 -40.14,0 -74.11,-16.21 -104.21,-49.41 -29.33,-32.42 -44,-71.79 -44,-116.56 0,-44.77 14.67,-83.37 43.23,-115.02 28.56,-31.65 63.3,-47.86 102.67,-47.86 50.95,0 91.86,24.7 121.97,74.88l0 -65.61zm9.26 154.39c0,-29.33 -10.03,-53.26 -30.1,-73.33 -20.07,-19.3 -45.54,-29.33 -75.65,-29.33 -27.02,0 -50.95,10.04 -71.79,30.88 -20.84,20.07 -31.65,44 -31.65,70.25 0,29.33 10.04,54.04 30.88,74.87 20.84,20.84 45.54,31.65 73.33,31.65 29.33,0 54.04,-10.04 74.11,-30.88 20.84,-20.07 30.87,-44.77 30.87,-74.1z"/>
   <path class="fil4" d="M5659.58 1761.37l-265.54 0c6.18,32.42 19.3,55.58 39.37,70.24 20.84,14.67 43.23,22.39 67.16,22.39 37.05,0 68.7,-15.44 93.4,-46.31l47.86 36.28c-35.51,46.32 -84.14,69.48 -144.35,69.48 -46.32,0 -84.91,-16.21 -115.79,-47.86 -31.65,-31.65 -47.09,-71.02 -47.09,-118.1 0,-44 16.21,-81.83 47.09,-114.25 31.65,-32.42 70.24,-48.63 115.79,-48.63 44.77,0 83.37,16.21 115.02,49.4 31.65,32.42 47.86,74.88 47.09,127.37zm-258.59 -52.49l190.67 0c-20.84,-42.46 -52.49,-64.07 -93.4,-64.07 -45.55,0 -77.97,21.61 -97.26,64.07zm321.89 196.07l0 -311.09 65.61 0 0 51.72c18.53,-20.84 35.51,-36.28 50.95,-46.31 15.44,-10.04 32.42,-14.67 50.94,-14.67 27.79,0 51.72,9.26 71.79,27.79 19.3,18.53 29.33,40.91 29.33,67.16l0 225.41 -65.61 0 0 -206.11c0,-16.98 -5.4,-30.88 -16.21,-42.46 -10.81,-10.81 -24.7,-16.21 -41.69,-16.21 -21.61,0 -40.14,9.26 -55.58,27.79 -16.21,18.53 -23.93,40.91 -23.93,67.16l0 169.82 -65.61 0zm583.58 -94.95l0 74.88c-33.19,19.3 -65.61,28.56 -97.26,28.56 -43.23,0 -80.28,-16.21 -112.7,-48.63 -32.42,-32.42 -48.63,-69.47 -48.63,-111.93 0,-48.63 16.21,-88.77 48.63,-120.42 31.65,-31.65 72.56,-47.86 120.42,-47.86 29.33,0 58.67,7.72 89.54,22.39l0 73.33c-33.19,-20.84 -64.07,-30.88 -93.4,-30.88 -27.02,0 -50.95,9.26 -71.02,28.56 -20.84,19.3 -30.88,41.69 -30.88,67.16 0,28.56 9.26,53.26 28.56,73.33 19.3,19.3 42.46,29.33 70.24,29.33 28.56,0 60.21,-12.35 96.49,-37.83zm374.39 -48.63l-265.54 0c6.18,32.42 19.3,55.58 39.37,70.24 20.84,14.67 43.23,22.39 67.16,22.39 37.05,0 68.7,-15.44 93.4,-46.31l47.86 36.28c-35.51,46.32 -84.14,69.48 -144.35,69.48 -46.32,0 -84.91,-16.21 -115.79,-47.86 -31.65,-31.65 -47.09,-71.02 -47.09,-118.1 0,-44 16.21,-81.83 47.09,-114.25 31.65,-32.42 70.24,-48.63 115.79,-48.63 44.77,0 83.37,16.21 115.02,49.4 31.65,32.42 47.86,74.88 47.09,127.37zm-258.59 -52.49l190.67 0c-20.84,-42.46 -52.49,-64.07 -93.4,-64.07 -45.55,0 -77.97,21.61 -97.26,64.07z"/>
   <path class="fil4" d="M3329.5 2100.54l266.31 0 0 65.61 -200.7 0 0 118.88 200.7 0 0 65.61 -200.7 0 0 164.42 200.7 0 0 65.61 -266.31 0 0 -480.14zm570.46 385.19l0 74.88c-33.19,19.3 -65.61,28.56 -97.26,28.56 -43.23,0 -80.28,-16.21 -112.7,-48.63 -32.42,-32.42 -48.63,-69.47 -48.63,-111.93 0,-48.63 16.21,-88.77 48.63,-120.42 31.65,-31.65 72.56,-47.86 120.42,-47.86 29.33,0 58.67,7.72 89.54,22.39l0 73.33c-33.19,-20.84 -64.07,-30.88 -93.4,-30.88 -27.02,0 -50.95,9.26 -71.02,28.56 -20.84,19.3 -30.88,41.69 -30.88,67.16 0,28.56 9.26,53.26 28.56,73.33 19.3,19.3 42.46,29.33 70.24,29.33 28.56,0 60.21,-12.35 96.49,-37.83zm46.31 -61.75c0,-43.23 16.98,-81.06 50.18,-114.25 33.96,-33.19 72.56,-49.4 115.79,-49.4 44.77,0 84.14,16.21 117.33,48.63 33.19,33.19 50.18,71.02 50.18,115.02 0,44 -16.21,82.59 -49.41,115.79 -32.42,33.19 -70.24,50.18 -113.47,50.18 -46.31,0 -85.69,-16.21 -119.65,-49.41 -33.96,-33.19 -50.95,-71.79 -50.95,-116.56zm270.18 0c0,-27.02 -10.04,-49.41 -30.11,-69.48 -20.07,-19.3 -44,-29.33 -71.79,-29.33 -28.56,0 -52.49,10.04 -73.33,30.1 -20.84,19.3 -30.88,43.23 -30.88,71.02 0,26.24 10.81,49.4 30.88,69.47 20.84,19.3 45.54,29.33 73.33,29.33 27.02,0 50.94,-10.04 71.02,-30.11 20.84,-20.84 30.88,-44 30.88,-71.02zm321.12 -118.11l-44 38.59c-10.81,-8.49 -20.84,-14.67 -29.33,-18.52 -8.49,-3.86 -17.75,-6.18 -29.33,-6.18 -27.02,0 -40.14,10.04 -40.14,29.33 0,13.89 16.98,27.79 50.95,40.91 33.96,13.12 57.89,27.79 72.56,44 14.67,15.44 22.39,34.74 22.39,57.12 0,26.24 -10.81,49.4 -31.65,68.7 -21.61,19.3 -47.09,29.33 -75.65,29.33 -44,0 -79.51,-20.07 -108.07,-60.98l51.72 -24.7c17.76,17.76 37.06,26.24 56.35,26.24 13.89,0 25.47,-3.86 35.51,-11.58 10.04,-6.94 15.44,-15.44 15.44,-25.47 0,-17.76 -17.75,-33.19 -53.26,-47.09 -36.28,-13.9 -60.98,-27.79 -74.1,-42.46 -13.9,-13.89 -20.84,-31.65 -20.84,-52.49 0,-25.47 10.04,-47.09 29.33,-64.84 19.3,-16.98 44,-25.47 73.33,-25.47 29.33,0 62.53,15.44 98.81,45.54zm49.4 -36.28l74.11 0 112.7 168.28 77.19 -168.28 68.7 0 -209.97 456.98 -68.7 0 102.67 -223.09 -156.7 -233.89zm593.61 36.28l-44 38.59c-10.81,-8.49 -20.84,-14.67 -29.33,-18.52 -8.49,-3.86 -17.75,-6.18 -29.33,-6.18 -27.02,0 -40.14,10.04 -40.14,29.33 0,13.89 16.98,27.79 50.95,40.91 33.96,13.12 57.89,27.79 72.56,44 14.67,15.44 22.39,34.74 22.39,57.12 0,26.24 -10.81,49.4 -31.65,68.7 -21.61,19.3 -47.09,29.33 -75.65,29.33 -44,0 -79.51,-20.07 -108.07,-60.98l51.72 -24.7c17.76,17.76 37.06,26.24 56.35,26.24 13.89,0 25.47,-3.86 35.51,-11.58 10.04,-6.94 15.44,-15.44 15.44,-25.47 0,-17.76 -17.75,-33.19 -53.26,-47.09 -36.28,-13.9 -60.98,-27.79 -74.1,-42.46 -13.9,-13.89 -20.84,-31.65 -20.84,-52.49 0,-25.47 10.04,-47.09 29.33,-64.84 19.3,-16.98 44,-25.47 73.33,-25.47 29.33,0 62.53,15.44 98.81,45.54zm90.31 -125.83l65.61 0 0 89.55 64.84 0 0 60.98 -64.84 0 0 250.11 -65.61 0 0 -250.11 -51.72 0 0 -60.98 51.72 0 0 -89.55zm498.67 257.06l-265.54 0c6.18,32.42 19.3,55.58 39.37,70.24 20.84,14.67 43.23,22.39 67.16,22.39 37.05,0 68.7,-15.44 93.4,-46.31l47.86 36.28c-35.51,46.32 -84.14,69.48 -144.35,69.48 -46.32,0 -84.91,-16.21 -115.79,-47.86 -31.65,-31.65 -47.09,-71.02 -47.09,-118.1 0,-44 16.21,-81.83 47.09,-114.25 31.65,-32.42 70.24,-48.63 115.79,-48.63 44.77,0 83.37,16.21 115.02,49.4 31.65,32.42 47.86,74.88 47.09,127.37zm-258.59 -52.49l190.67 0c-20.84,-42.46 -52.49,-64.07 -93.4,-64.07 -45.55,0 -77.97,21.61 -97.26,64.07zm328.07 196.07l0 -311.09 65.61 0 0 47.09c15.44,-19.3 30.11,-33.96 44,-43.23 13.9,-8.49 29.33,-13.12 47.86,-13.12 23.16,0 41.69,5.4 54.81,15.44 13.12,10.04 24.7,27.02 33.96,49.41 16.21,-22.39 32.42,-39.37 47.86,-49.41 14.67,-10.04 32.42,-15.44 52.49,-15.44 24.7,0 46.31,9.26 64.07,27.79 17.75,18.53 27.02,40.14 27.02,65.61l0 226.95 -65.61 0 0 -210.74c0,-34.74 -16.98,-51.72 -50.94,-51.72 -19.3,0 -35.51,8.49 -49.41,26.24 -13.12,17.76 -20.07,40.14 -20.07,65.61l0 170.6 -65.61 0 0 -201.47c0,-40.91 -16.21,-60.98 -49.4,-60.98 -20.07,0 -37.05,8.49 -50.18,24.7 -13.89,16.98 -20.84,37.06 -20.84,61.76l0 176 -65.61 0z"/>
   <line class="fil5 str0" x1="3156.27" y1="3450.79" x2="3156.27" y2= "24.87" />
  </g>
 </g>
</svg>
